<svg width="31" height="31" viewBox="0 0 31 31" fill="none" xmlns="http://www.w3.org/2000/svg">
<path d="M14.208 29.688C6.37425 29.688 0 23.314 0 15.4803C0 7.64659 6.37425 1.27234 14.208 1.27234C16.932 1.27234 19.5823 2.04854 21.8723 3.51842C22.3219 3.8079 22.4537 4.4072 22.1642 4.85797C21.8738 5.30875 21.2757 5.43906 20.8249 5.14982C18.8486 3.88003 16.56 3.20978 14.208 3.20978C7.4423 3.20978 1.93744 8.71464 1.93744 15.4803C1.93744 22.2457 7.4423 27.7506 14.208 27.7506C20.9734 27.7506 26.4783 22.2457 26.4783 15.4803C26.4783 15.0759 26.4589 14.6755 26.4215 14.2817C26.3699 13.7482 26.7599 13.2754 27.2921 13.2238C27.8268 13.1746 28.2982 13.5623 28.35 14.0944C28.3937 14.5504 28.4157 15.0127 28.4157 15.4803C28.4157 23.314 22.0417 29.688 14.208 29.688Z" fill="black"/>
<path d="M15.8226 18.7094C15.5747 18.7094 15.3266 18.615 15.1381 18.4253L9.3258 12.613C8.94739 12.2344 8.94739 11.6209 9.3258 11.2425C9.7042 10.8641 10.3177 10.8641 10.6961 11.2425L15.824 16.3704L29.3458 2.84826C29.7245 2.46985 30.338 2.46985 30.7164 2.84826C31.0948 3.22666 31.0948 3.84015 30.7164 4.21856L16.5084 18.4265C16.3185 18.615 16.0706 18.7094 15.8226 18.7094Z" fill="black"/>
</svg>
