<svg width="36" height="36" viewBox="0 0 36 36" fill="none" xmlns="http://www.w3.org/2000/svg">
<g clip-path="url(#clip0)">
<path d="M3.31291 5.01978H32.6871C34.2374 5.01978 35.5 6.28183 35.5 7.83494C35.5 9.38552 34.2377 10.6479 32.6871 10.6479H3.31291C1.76234 10.6479 0.5 9.38552 0.5 7.83494C0.5 6.28183 1.76255 5.01978 3.31291 5.01978Z" fill="white" stroke="white"/>
<path d="M3.31291 15.1865H32.6871C34.2374 15.1865 35.5 16.4486 35.5 18.0017C35.5 19.5523 34.2377 20.8146 32.6871 20.8146H3.31291C1.76234 20.8146 0.5 19.5523 0.5 18.0017C0.5 16.4486 1.76255 15.1865 3.31291 15.1865Z" fill="white" stroke="white"/>
<path d="M3.31291 25.3533H32.6871C34.2374 25.3533 35.5 26.6154 35.5 28.1684C35.5 29.719 34.2377 30.9814 32.6871 30.9814H3.31291C1.76234 30.9814 0.5 29.719 0.5 28.1684C0.5 26.6154 1.76256 25.3533 3.31291 25.3533Z" fill="white" stroke="white"/>
</g>
<defs>
<clipPath id="clip0">
<rect width="36" height="36" fill="white"/>
</clipPath>
</defs>
</svg>
