<svg width="50" height="50" viewBox="0 0 50 50" fill="none" xmlns="http://www.w3.org/2000/svg">
<path d="M38.8412 23.049L16.5905 0.798774C16.0759 0.283738 15.3889 0 14.6564 0C13.9239 0 13.2369 0.283738 12.7223 0.798774L11.0837 2.43697C10.0174 3.50444 10.0174 5.23939 11.0837 6.30523L29.7681 24.9896L11.0629 43.6948C10.5483 44.2098 10.2642 44.8964 10.2642 45.6285C10.2642 46.3614 10.5483 47.048 11.0629 47.5634L12.7015 49.2012C13.2166 49.7163 13.9032 50 14.6357 50C15.3682 50 16.0552 49.7163 16.5698 49.2012L38.8412 26.9307C39.357 26.414 39.6403 25.7242 39.6387 24.9909C39.6403 24.2547 39.357 23.5653 38.8412 23.049Z" fill="black" fill-opacity="0.2"/>
</svg>
