<svg width="50" height="50" viewBox="0 0 50 50" fill="none" xmlns="http://www.w3.org/2000/svg">
<path d="M11.1588 23.049L33.4095 0.798774C33.9241 0.283738 34.6111 0 35.3436 0C36.0761 0 36.7631 0.283738 37.2777 0.798774L38.9163 2.43697C39.9826 3.50444 39.9826 5.23939 38.9163 6.30523L20.2319 24.9896L38.9371 43.6948C39.4517 44.2098 39.7358 44.8964 39.7358 45.6285C39.7358 46.3614 39.4517 47.048 38.9371 47.5634L37.2985 49.2012C36.7834 49.7163 36.0968 50 35.3643 50C34.6318 50 33.9448 49.7163 33.4302 49.2012L11.1588 26.9307C10.643 26.414 10.3597 25.7242 10.3613 24.9909C10.3597 24.2547 10.643 23.5653 11.1588 23.049Z" fill="black" fill-opacity="0.2"/>
</svg>
